<svg width="36" height="8" viewBox="0 0 36 8" fill="none" xmlns="http://www.w3.org/2000/svg">
<path d="M3.73 1.728C3.83 1.768 3.88 1.824 3.88 1.896C3.88 1.968 3.83 2.06 3.73 2.172C3.686 2.168 3.622 2.166 3.538 2.166C3.354 2.166 3.178 2.192 3.01 2.244C2.842 2.292 2.668 2.368 2.488 2.472C2.404 2.524 2.332 2.59 2.272 2.67C2.228 2.718 2.206 2.774 2.206 2.838C2.206 2.946 2.266 3.05 2.386 3.15C2.502 3.27 2.692 3.488 2.956 3.804L3.094 3.948C3.29 4.16 3.444 4.34 3.556 4.488C3.672 4.636 3.77 4.806 3.85 4.998C3.882 5.082 3.898 5.158 3.898 5.226C3.898 5.398 3.832 5.556 3.7 5.7C3.548 5.868 3.372 5.99 3.172 6.066C2.972 6.146 2.746 6.196 2.494 6.216C2.462 6.22 2.424 6.224 2.38 6.228C2.336 6.232 2.286 6.234 2.23 6.234C2.194 6.234 2.14 6.23 2.068 6.222C1.98 6.226 1.888 6.21 1.792 6.174C1.696 6.142 1.608 6.094 1.528 6.03C1.376 5.902 1.3 5.76 1.3 5.604C1.3 5.472 1.356 5.338 1.468 5.202C1.524 5.21 1.556 5.228 1.564 5.256C1.576 5.28 1.578 5.308 1.57 5.34C1.566 5.372 1.564 5.398 1.564 5.418C1.564 5.43 1.568 5.448 1.576 5.472C1.732 5.544 1.918 5.58 2.134 5.58C2.374 5.58 2.6 5.54 2.812 5.46C3.028 5.376 3.16 5.274 3.208 5.154C3.236 5.074 3.168 4.934 3.004 4.734C2.84 4.53 2.656 4.332 2.452 4.14C2.26 3.968 2.086 3.798 1.93 3.63C1.842 3.534 1.772 3.424 1.72 3.3C1.672 3.172 1.648 3.04 1.648 2.904C1.648 2.72 1.694 2.546 1.786 2.382C1.882 2.218 2.024 2.084 2.212 1.98C2.572 1.776 2.94 1.674 3.316 1.674C3.368 1.674 3.442 1.678 3.538 1.686C3.626 1.694 3.69 1.708 3.73 1.728ZM8.13522 4.32C8.11922 4.42 8.08722 4.68 8.03922 5.1C8.01122 5.34 7.99522 5.464 7.99122 5.472L7.46322 5.388L7.57122 4.092L7.50522 4.14C7.46922 4.172 7.41922 4.222 7.35522 4.29C7.29522 4.354 7.24122 4.412 7.19322 4.464C7.03722 4.68 6.92322 4.826 6.85122 4.902C6.67522 5.086 6.51322 5.24 6.36522 5.364C6.22122 5.484 6.04922 5.594 5.84922 5.694C5.76922 5.734 5.67122 5.754 5.55522 5.754C5.45522 5.754 5.35922 5.736 5.26722 5.7C5.17522 5.664 5.09722 5.61 5.03322 5.538C4.71722 5.194 4.55922 4.778 4.55922 4.29C4.55922 4.15 4.57122 4.006 4.59522 3.858C4.62722 3.666 4.66722 3.478 4.71522 3.294C4.76322 3.106 4.82922 2.864 4.91322 2.568C4.94122 2.484 4.97922 2.358 5.02722 2.19C5.04722 2.11 5.07722 2.064 5.11722 2.052C5.13322 2.044 5.14722 2.04 5.15922 2.04C5.20322 2.04 5.25522 2.058 5.31522 2.094C5.44722 2.17 5.54122 2.244 5.59722 2.316C5.65722 2.388 5.68722 2.47 5.68722 2.562C5.68722 2.67 5.64522 2.812 5.56122 2.988C5.31322 3.516 5.18922 4.002 5.18922 4.446C5.18922 4.562 5.19322 4.648 5.20122 4.704C5.20922 4.796 5.25522 4.878 5.33922 4.95C5.42322 5.022 5.51522 5.058 5.61522 5.058C5.72322 5.058 5.81722 5.018 5.89722 4.938C6.31322 4.522 6.65522 4.1 6.92322 3.672C7.19122 3.244 7.40122 2.774 7.55322 2.262C7.56922 2.202 7.58722 2.144 7.60722 2.088L7.61922 2.076C7.85522 2.1 8.04122 2.192 8.17722 2.352C8.31322 2.508 8.37322 2.702 8.35722 2.934C8.24922 3.574 8.17522 4.036 8.13522 4.32ZM12.1308 2.55C12.2188 2.842 12.2628 3.144 12.2628 3.456C12.2628 3.916 12.1588 4.354 11.9508 4.77C11.8028 5.054 11.5608 5.368 11.2248 5.712C11.0568 5.884 10.8508 5.97 10.6068 5.97C10.4788 5.97 10.3508 5.946 10.2228 5.898C9.8148 5.738 9.5108 5.516 9.3108 5.232C9.1148 4.948 9.0168 4.59 9.0168 4.158C9.0168 3.966 9.0228 3.774 9.0348 3.582C9.0508 3.39 9.0668 3.21 9.0828 3.042C9.1028 2.874 9.1148 2.766 9.1188 2.718L9.1548 2.4C9.1628 2.3 9.1908 2.22 9.2388 2.16C9.2868 2.096 9.3548 2.064 9.4428 2.064C9.4828 2.064 9.5268 2.07 9.5748 2.082C9.8868 2.17 10.0428 2.318 10.0428 2.526C10.0428 2.57 10.0368 2.62 10.0248 2.676C9.8928 3.184 9.8268 3.674 9.8268 4.146C9.8268 4.406 9.8468 4.656 9.8868 4.896C9.9028 4.984 9.9388 5.074 9.9948 5.166C10.0508 5.254 10.1148 5.318 10.1868 5.358C10.2268 5.382 10.2948 5.37 10.3908 5.322C10.4868 5.274 10.5688 5.218 10.6368 5.154C11.3128 4.514 11.6508 3.738 11.6508 2.826C11.6508 2.578 11.6268 2.326 11.5788 2.07C11.5748 2.058 11.5708 2.046 11.5668 2.034C11.5628 2.018 11.5608 2 11.5608 1.98C11.5608 1.976 11.5808 1.92 11.6208 1.812C11.6368 1.836 11.7048 1.924 11.8248 2.076C11.9128 2.184 11.9788 2.272 12.0228 2.34C12.0708 2.404 12.1068 2.474 12.1308 2.55ZM16.0345 4.53C16.0385 4.49 16.0405 4.428 16.0405 4.344C16.0445 4.316 16.0465 4.27 16.0465 4.206L15.9085 4.338C15.7925 4.446 15.7025 4.526 15.6385 4.578C15.5465 4.646 15.4665 4.678 15.3985 4.674C15.2425 4.662 15.1085 4.63 14.9965 4.578C14.8885 4.522 14.8065 4.428 14.7505 4.296L14.4985 3.684C14.4945 3.688 14.4825 3.702 14.4625 3.726C14.4465 3.746 14.4345 3.768 14.4265 3.792C14.2505 4.212 14.0705 4.66 13.8865 5.136C13.7825 5.404 13.6925 5.67 13.6165 5.934C13.5965 6.002 13.5625 6.05 13.5145 6.078C13.4705 6.106 13.4125 6.12 13.3405 6.12C13.2245 6.12 13.1145 6.078 13.0105 5.994C12.9105 5.91 12.8605 5.808 12.8605 5.688C12.8605 5.644 12.8705 5.596 12.8905 5.544C12.9785 5.312 13.0425 5.138 13.0825 5.022C13.2865 4.474 13.4605 4.034 13.6045 3.702C13.7525 3.366 13.9345 3.042 14.1505 2.73C14.2345 2.606 14.2885 2.532 14.3125 2.508C14.3845 2.42 14.4745 2.376 14.5825 2.376C14.6065 2.376 14.6385 2.38 14.6785 2.388C14.8425 2.42 14.9525 2.45 15.0085 2.478C15.0685 2.502 15.1085 2.544 15.1285 2.604C15.1525 2.66 15.1785 2.77 15.2065 2.934L15.3145 3.696C15.3985 3.648 15.4925 3.57 15.5965 3.462C15.7045 3.35 15.8065 3.226 15.9025 3.09C15.8905 3.106 15.9525 3.026 16.0885 2.85C16.1325 2.798 16.1945 2.72 16.2745 2.616C16.3425 2.52 16.4325 2.472 16.5445 2.472C16.5845 2.472 16.6245 2.478 16.6645 2.49C16.8085 2.522 16.9125 2.57 16.9765 2.634C17.0405 2.698 17.0725 2.79 17.0725 2.91C17.0725 2.982 17.0645 3.056 17.0485 3.132L16.9225 3.756C16.7705 4.532 16.6865 4.968 16.6705 5.064L16.4785 6.18C16.4505 6.372 16.4045 6.656 16.3405 7.032C16.3365 7.076 16.3225 7.138 16.2985 7.218C16.2865 7.254 16.2685 7.316 16.2445 7.404C16.2205 7.492 16.2045 7.57 16.1965 7.638C16.1885 7.706 16.1685 7.756 16.1365 7.788C16.1045 7.824 16.0565 7.844 15.9925 7.848C15.9165 7.852 15.8545 7.834 15.8065 7.794C15.7585 7.758 15.7325 7.704 15.7285 7.632L15.7225 7.236C15.7225 7.104 15.7285 6.972 15.7405 6.84C15.7925 6.376 15.8525 5.906 15.9205 5.43L16.0345 4.53ZM20.1971 3.21C20.1771 3.25 20.1131 3.36 20.0051 3.54C20.1051 3.6 20.1751 3.638 20.2151 3.654C20.4271 3.734 20.5851 3.856 20.6891 4.02C20.7971 4.18 20.8511 4.358 20.8511 4.554C20.8511 4.746 20.8011 4.936 20.7011 5.124C20.4531 5.584 20.0531 5.952 19.5011 6.228C19.3651 6.296 19.2311 6.33 19.0991 6.33C18.9071 6.33 18.7291 6.262 18.5651 6.126C18.5011 6.074 18.4251 6.016 18.3371 5.952C18.3291 5.976 18.3191 6.004 18.3071 6.036C18.2991 6.072 18.2891 6.098 18.2771 6.114C18.2291 6.186 18.1691 6.222 18.0971 6.222C18.0331 6.222 17.9751 6.196 17.9231 6.144C17.7791 6.012 17.7071 5.862 17.7071 5.694C17.7071 5.566 17.7051 5.454 17.7011 5.358C17.6971 5.262 17.6931 5.182 17.6891 5.118C17.6851 5.038 17.6811 4.938 17.6771 4.818C17.6731 4.698 17.6711 4.558 17.6711 4.398C17.6711 4.094 17.6871 3.822 17.7191 3.582C17.7631 3.23 17.8471 2.9 17.9711 2.592C18.0671 2.36 18.2091 2.178 18.3971 2.046C18.5891 1.914 18.8151 1.836 19.0751 1.812C19.1951 1.804 19.2871 1.8 19.3511 1.8C19.6471 1.8 19.8951 1.864 20.0951 1.992C20.1991 2.056 20.2791 2.14 20.3351 2.244C20.3951 2.348 20.4251 2.46 20.4251 2.58C20.4251 2.68 20.4031 2.78 20.3591 2.88L20.2991 3C20.2711 3.064 20.2371 3.134 20.1971 3.21ZM19.7231 2.712C19.7431 2.66 19.7611 2.574 19.7771 2.454L19.7951 2.322C19.6751 2.27 19.5611 2.244 19.4531 2.244C19.3611 2.244 19.2751 2.258 19.1951 2.286C19.0231 2.342 18.8791 2.428 18.7631 2.544C18.6511 2.656 18.5611 2.78 18.4931 2.916C18.4291 3.052 18.3651 3.22 18.3011 3.42C18.2531 3.576 18.2291 3.75 18.2291 3.942C18.2291 4.046 18.2371 4.198 18.2531 4.398C18.2611 4.458 18.2691 4.556 18.2771 4.692C18.2811 4.8 18.3031 5.022 18.3431 5.358L18.3671 5.556C18.3911 5.564 18.4311 5.572 18.4871 5.58C18.5631 5.588 18.6211 5.604 18.6611 5.628C18.6971 5.648 18.7331 5.682 18.7691 5.73C18.8051 5.774 18.8331 5.808 18.8531 5.832C19.0931 5.784 19.2971 5.686 19.4651 5.538C19.6371 5.39 19.8051 5.198 19.9691 4.962C20.0931 4.77 20.1711 4.598 20.2031 4.446C20.2151 4.386 20.2211 4.332 20.2211 4.284C20.2211 4.176 20.1911 4.094 20.1311 4.038C20.0751 3.982 19.9971 3.954 19.8971 3.954C19.8371 3.954 19.7811 3.962 19.7291 3.978C19.5491 4.03 19.3651 4.144 19.1771 4.32C19.0811 4.404 18.9851 4.446 18.8891 4.446C18.8291 4.446 18.7671 4.428 18.7031 4.392C18.6271 4.348 18.5631 4.3 18.5111 4.248C18.4591 4.196 18.4151 4.128 18.3791 4.044L18.5171 3.948C18.6611 3.844 18.7711 3.77 18.8471 3.726C19.2351 3.518 19.5271 3.18 19.7231 2.712ZM22.2364 5.868C22.1524 5.892 22.0744 5.904 22.0024 5.904C21.8104 5.904 21.6264 5.82 21.4504 5.652C21.4744 5.564 21.5144 5.5 21.5704 5.46C21.6264 5.416 21.6824 5.382 21.7384 5.358C21.7944 5.334 21.8324 5.318 21.8524 5.31C22.0684 5.218 22.2944 5.138 22.5304 5.07C22.6304 5.038 22.6924 4.974 22.7164 4.878C22.7884 4.634 22.8444 4.394 22.8844 4.158C22.9244 3.918 22.9724 3.596 23.0284 3.192L23.0524 3.006C23.0564 2.994 23.0584 2.976 23.0584 2.952C23.0584 2.868 23.0164 2.81 22.9324 2.778C22.9044 2.766 22.8724 2.746 22.8364 2.718C22.8004 2.686 22.7724 2.662 22.7524 2.646L22.6084 2.718C22.4924 2.77 22.3604 2.834 22.2124 2.91C22.1604 2.938 22.1064 2.952 22.0504 2.952C21.9904 2.952 21.9264 2.938 21.8584 2.91C21.7944 2.878 21.7564 2.86 21.7444 2.856C21.7084 2.84 21.6784 2.816 21.6544 2.784C21.6344 2.752 21.6244 2.718 21.6244 2.682C21.6244 2.634 21.6404 2.588 21.6724 2.544C21.7164 2.48 21.7844 2.414 21.8764 2.346C22.2364 2.078 22.6164 1.944 23.0164 1.944C23.2004 1.944 23.3824 1.97 23.5624 2.022C23.7304 2.074 23.8764 2.118 24.0004 2.154C24.1284 2.186 24.2344 2.214 24.3184 2.238L24.6964 2.346C24.7044 2.346 24.7204 2.348 24.7444 2.352C24.7724 2.356 24.7924 2.364 24.8044 2.376C24.8284 2.396 24.8524 2.424 24.8764 2.46C24.9044 2.492 24.9264 2.518 24.9424 2.538C24.9224 2.554 24.8944 2.578 24.8584 2.61C24.8264 2.642 24.7964 2.658 24.7684 2.658C24.7364 2.662 24.6864 2.664 24.6184 2.664C24.5664 2.664 24.4884 2.66 24.3844 2.652L24.2524 2.646L23.8264 2.598L23.7964 2.814C23.7444 3.19 23.6984 3.488 23.6584 3.708C23.6264 3.9 23.5744 4.158 23.5024 4.482L23.4304 4.836C23.7024 4.8 23.8864 4.776 23.9824 4.764C24.1984 4.74 24.3604 4.728 24.4684 4.728C24.6004 4.728 24.7104 4.746 24.7984 4.782C24.8864 4.818 24.9484 4.892 24.9844 5.004C24.9444 5.056 24.8984 5.094 24.8464 5.118C24.7984 5.142 24.7484 5.16 24.6964 5.172C24.6484 5.184 24.6184 5.192 24.6064 5.196L24.4924 5.232C24.2524 5.304 24.0884 5.346 24.0004 5.358C23.8124 5.386 23.6284 5.426 23.4484 5.478C23.2724 5.53 23.0524 5.6 22.7884 5.688C22.6164 5.752 22.4324 5.812 22.2364 5.868ZM29.3311 5.682C29.4031 5.686 29.4591 5.706 29.4991 5.742C29.5391 5.774 29.5671 5.832 29.5831 5.916C29.4391 5.972 29.2891 6 29.1331 6C29.0331 6 28.9351 5.988 28.8391 5.964C28.4991 5.88 28.1971 5.776 27.9331 5.652C27.6731 5.528 27.4391 5.36 27.2311 5.148L27.1411 5.058C27.0131 4.946 26.9231 4.844 26.8711 4.752C26.8231 4.664 26.7551 4.62 26.6671 4.62C26.6191 4.62 26.5751 4.634 26.5351 4.662C26.4951 4.69 26.4651 4.728 26.4451 4.776C26.3611 4.976 26.3091 5.1 26.2891 5.148C26.2611 5.212 26.2291 5.288 26.1931 5.376C26.1571 5.464 26.1131 5.564 26.0611 5.676C26.0211 5.7 25.9971 5.712 25.9891 5.712C25.8371 5.704 25.7311 5.686 25.6711 5.658C25.6151 5.63 25.5871 5.578 25.5871 5.502C25.5871 5.438 25.6051 5.346 25.6411 5.226C25.7971 4.71 25.9531 4.302 26.1091 4.002C26.1571 3.914 26.2031 3.814 26.2471 3.702C26.2911 3.586 26.3311 3.472 26.3671 3.36C26.4351 3.176 26.4791 3.06 26.4991 3.012L27.2791 1.122C27.3351 1.114 27.3771 1.11 27.4051 1.11C27.5571 1.11 27.6991 1.16 27.8311 1.26C27.8951 1.308 27.9271 1.362 27.9271 1.422C27.9271 1.462 27.9171 1.502 27.8971 1.542C27.6611 2.046 27.3951 2.624 27.0991 3.276C27.0271 3.444 26.9851 3.582 26.9731 3.69L27.5611 3.312L27.8791 3.096C28.2951 2.812 28.5811 2.62 28.7371 2.52C28.9251 2.396 29.1071 2.334 29.2831 2.334C29.4191 2.334 29.5551 2.372 29.6911 2.448C29.7191 2.464 29.7731 2.504 29.8531 2.568C29.8491 2.564 29.8831 2.592 29.9551 2.652C29.9391 2.664 29.9051 2.696 29.8531 2.748C29.7851 2.808 29.7351 2.842 29.7031 2.85C29.5591 2.878 29.4251 2.924 29.3011 2.988C29.1811 3.052 29.0271 3.142 28.8391 3.258C28.2871 3.606 27.8231 3.908 27.4471 4.164C27.3871 4.204 27.3451 4.238 27.3211 4.266C27.2971 4.29 27.2851 4.316 27.2851 4.344C27.2851 4.384 27.3091 4.452 27.3571 4.548C27.6491 5.156 28.1531 5.516 28.8691 5.628C29.0171 5.656 29.1711 5.674 29.3311 5.682ZM31.8519 3.708L32.0679 3.678C32.2239 3.654 32.3299 3.64 32.3859 3.636L32.5299 3.624C32.5779 3.62 32.6379 3.616 32.7099 3.612C32.7819 3.608 32.8639 3.606 32.9559 3.606C33.0439 3.606 33.1079 3.608 33.1479 3.612C33.2879 3.624 33.3899 3.67 33.4539 3.75C33.5219 3.83 33.5619 3.95 33.5739 4.11C33.5579 4.11 33.5339 4.108 33.5019 4.104C33.4699 4.1 33.4439 4.096 33.4239 4.092C33.3119 4.072 33.2099 4.062 33.1179 4.062C33.0099 4.062 32.9059 4.076 32.8059 4.104C32.5499 4.184 32.2219 4.268 31.8219 4.356C31.7459 4.376 31.6859 4.408 31.6419 4.452C31.6019 4.492 31.5759 4.55 31.5639 4.626C31.5399 4.778 31.5099 4.93 31.4739 5.082C31.4459 5.222 31.4239 5.338 31.4079 5.43C31.4039 5.462 31.4019 5.504 31.4019 5.556C31.4019 5.604 31.4019 5.638 31.4019 5.658C31.4659 5.67 31.5319 5.676 31.5999 5.676C31.7319 5.676 31.8939 5.65 32.0859 5.598C32.4379 5.514 32.7919 5.424 33.1479 5.328L33.8079 5.16C34.0159 5.108 34.1799 5.062 34.2999 5.022C34.5599 4.95 34.7479 4.9 34.8639 4.872C34.9119 4.864 34.9479 4.86 34.9719 4.86C35.0719 4.86 35.1379 4.9 35.1699 4.98C35.1819 5.008 35.1879 5.036 35.1879 5.064C35.1879 5.112 35.1719 5.158 35.1399 5.202C35.1079 5.246 35.0639 5.282 35.0079 5.31C34.9319 5.342 34.8279 5.376 34.6959 5.412C34.3119 5.524 33.9719 5.63 33.6759 5.73C33.0999 5.914 32.6719 6.044 32.3919 6.12C32.2799 6.152 32.1119 6.18 31.8879 6.204L31.6659 6.234C31.5299 6.25 31.4079 6.204 31.2999 6.096L31.1919 5.988C31.0599 5.864 30.9579 5.756 30.8859 5.664C30.8339 5.596 30.8119 5.502 30.8199 5.382C30.8319 5.242 30.8579 5.028 30.8979 4.74L30.9219 4.548L30.9399 4.368C30.8199 4.332 30.7259 4.288 30.6579 4.236C30.5939 4.18 30.5599 4.092 30.5559 3.972C30.6839 3.956 30.7799 3.948 30.8439 3.948C30.9159 3.944 30.9739 3.926 31.0179 3.894C31.0619 3.862 31.0959 3.81 31.1199 3.738C31.1639 3.594 31.2379 3.382 31.3419 3.102C31.3739 2.998 31.4139 2.882 31.4619 2.754C31.4819 2.69 31.4959 2.61 31.5039 2.514C31.5039 2.442 31.5199 2.386 31.5519 2.346C31.5879 2.302 31.6439 2.268 31.7199 2.244C32.0839 2.132 32.5579 2.046 33.1419 1.986C33.3339 1.966 33.5239 1.96 33.7119 1.968C33.9759 1.968 34.1719 2.068 34.2999 2.268C34.3359 2.316 34.3539 2.38 34.3539 2.46C34.3539 2.496 34.3499 2.522 34.3419 2.538C34.3179 2.594 34.2819 2.642 34.2339 2.682C34.1899 2.718 34.1339 2.736 34.0659 2.736L33.8319 2.742C33.7199 2.75 33.6379 2.754 33.5859 2.754C33.4739 2.754 33.3979 2.734 33.3579 2.694C33.3019 2.638 33.2319 2.61 33.1479 2.61C33.1239 2.61 33.0839 2.614 33.0279 2.622L32.4339 2.76L32.1939 2.82L31.8519 3.708Z" fill="#F472B6"/>
</svg>
