<svg width="50" height="50" viewBox="0 0 50 50" fill="none" xmlns="http://www.w3.org/2000/svg">
<g clip-path="url(#clip0_1_2)">
<path d="M25 0C18.3717 0.00684996 12.0168 2.64297 7.3299 7.3299C2.64297 12.0168 0.00684996 18.3717 0 25C0 31.6797 2.5987 37.9565 7.31924 42.6771C9.63552 45.0064 12.3909 46.8531 15.4259 48.1101C18.4609 49.3671 21.715 50.0095 25 50C31.6283 49.9932 37.9832 47.357 42.6701 42.6701C47.357 37.9832 49.9932 31.6283 50 25C49.9932 18.3717 47.357 12.0168 42.6701 7.3299C37.9832 2.64297 31.6283 0.00684996 25 0ZM9.88836 42.5144C11.6162 40.2664 13.8295 38.4377 16.3629 37.1646C18.8963 35.8915 21.6845 35.2069 24.5194 35.1619C24.6082 35.1656 24.6932 35.1878 24.7819 35.1878H24.8669C24.9482 35.1878 25.0222 35.1656 25.1035 35.1619C27.9777 35.2108 30.8024 35.918 33.3606 37.2291C35.9187 38.5402 38.1423 40.4204 39.8603 42.7251C35.7037 46.2331 30.439 48.1556 25 48.1517C19.4469 48.1616 14.0782 46.1589 9.88836 42.5144ZM24.793 33.2951C24.7006 33.2951 24.6119 33.3099 24.5194 33.3136C22.3618 33.2405 20.3177 32.3287 18.8218 30.7721C17.3259 29.2154 16.4962 27.1367 16.5089 24.9778C16.5128 23.885 16.7324 22.8037 17.1551 21.796C17.5777 20.7882 18.1952 19.8738 18.972 19.1052C19.7489 18.3366 20.6698 17.7289 21.682 17.317C22.6943 16.9051 23.7778 16.6971 24.8706 16.7049C25.9634 16.7087 27.0447 16.9283 28.0525 17.351C29.0603 17.7736 29.9747 18.3911 30.7433 19.168C31.5119 19.9448 32.1195 20.8657 32.5314 21.878C32.9433 22.8902 33.1514 23.9738 33.1436 25.0665C33.1436 29.5468 29.5579 33.1879 25.1072 33.3173C25.0037 33.3136 24.9002 33.2951 24.793 33.2951ZM41.2317 41.4831C38.3734 37.711 34.3076 35.0335 29.7131 33.8977C31.3119 33.0216 32.6455 31.7317 33.5743 30.1629C34.503 28.5942 34.9927 26.8045 34.9919 24.9815C34.9875 23.6461 34.7198 22.3247 34.2041 21.0929C33.6883 19.8611 32.9347 18.7432 31.9863 17.803C31.038 16.8629 29.9135 16.1191 28.6772 15.6141C27.441 15.1091 26.1173 14.853 24.7819 14.8603C23.4465 14.8646 22.1251 15.1323 20.8933 15.6481C19.6615 16.1638 18.5436 16.9174 17.6034 17.8658C16.6633 18.8142 15.9194 19.9387 15.4145 21.1749C14.9095 22.4112 14.6534 23.7349 14.6607 25.0702C14.6674 26.8762 15.1588 28.6473 16.0834 30.1987C17.008 31.7501 18.332 33.025 19.9172 33.8903C15.4003 34.9997 11.3885 37.5975 8.52802 41.265C4.23763 36.9436 1.83669 31.0968 1.85199 25.0074C1.85884 18.8693 4.30023 12.9845 8.64053 8.64423C12.9808 4.30392 18.8656 1.86253 25.0037 1.85569C31.1418 1.86253 37.0266 4.30392 41.3669 8.64423C45.7072 12.9845 48.1486 18.8693 48.1554 25.0074C48.1538 28.0759 47.5408 31.1133 46.352 33.9422C45.1632 36.771 43.4225 39.3346 41.2317 41.4831Z" fill="#F9A8D4"/>
</g>
<defs>
<clipPath id="clip0_1_2">
<rect width="50" height="50" fill="white"/>
</clipPath>
</defs>
</svg>
