<svg width="9" height="7" viewBox="0 0 9 7" fill="none" xmlns="http://www.w3.org/2000/svg">
<path d="M2.73 0.728C2.83 0.768 2.88 0.824 2.88 0.896C2.88 0.968 2.83 1.06 2.73 1.172C2.686 1.168 2.622 1.166 2.538 1.166C2.354 1.166 2.178 1.192 2.01 1.244C1.842 1.292 1.668 1.368 1.488 1.472C1.404 1.524 1.332 1.59 1.272 1.67C1.228 1.718 1.206 1.774 1.206 1.838C1.206 1.946 1.266 2.05 1.386 2.15C1.502 2.27 1.692 2.488 1.956 2.804L2.094 2.948C2.29 3.16 2.444 3.34 2.556 3.488C2.672 3.636 2.77 3.806 2.85 3.998C2.882 4.082 2.898 4.158 2.898 4.226C2.898 4.398 2.832 4.556 2.7 4.7C2.548 4.868 2.372 4.99 2.172 5.066C1.972 5.146 1.746 5.196 1.494 5.216C1.462 5.22 1.424 5.224 1.38 5.228C1.336 5.232 1.286 5.234 1.23 5.234C1.194 5.234 1.14 5.23 1.068 5.222C0.98 5.226 0.888 5.21 0.792 5.174C0.696 5.142 0.608 5.094 0.528 5.03C0.376 4.902 0.3 4.76 0.3 4.604C0.3 4.472 0.356 4.338 0.468 4.202C0.524 4.21 0.556 4.228 0.564 4.256C0.576 4.28 0.578 4.308 0.57 4.34C0.566 4.372 0.564 4.398 0.564 4.418C0.564 4.43 0.568 4.448 0.576 4.472C0.732 4.544 0.918 4.58 1.134 4.58C1.374 4.58 1.6 4.54 1.812 4.46C2.028 4.376 2.16 4.274 2.208 4.154C2.236 4.074 2.168 3.934 2.004 3.734C1.84 3.53 1.656 3.332 1.452 3.14C1.26 2.968 1.086 2.798 0.93 2.63C0.842 2.534 0.772 2.424 0.72 2.3C0.672 2.172 0.648 2.04 0.648 1.904C0.648 1.72 0.694 1.546 0.786 1.382C0.882 1.218 1.024 1.084 1.212 0.98C1.572 0.776 1.94 0.674 2.316 0.674C2.368 0.674 2.442 0.678 2.538 0.686C2.626 0.694 2.69 0.708 2.73 0.728ZM5.06522 2.696C5.24522 2.816 5.38322 2.966 5.47922 3.146C5.57922 3.322 5.62922 3.51 5.62922 3.71C5.62922 3.786 5.61922 3.874 5.59922 3.974C5.53922 4.242 5.42722 4.462 5.26322 4.634C5.10322 4.806 4.89122 4.918 4.62722 4.97C4.53122 4.986 4.45922 4.994 4.41122 4.994C4.23522 4.994 4.07722 4.954 3.93722 4.874C3.80122 4.79 3.69322 4.678 3.61322 4.538C3.53722 4.398 3.49922 4.248 3.49922 4.088C3.49922 4.056 3.50322 4.008 3.51122 3.944C3.52322 3.864 3.55322 3.734 3.60122 3.554C3.65722 3.354 3.74322 3.202 3.85922 3.098C3.97522 2.994 4.14322 2.95 4.36322 2.966C4.36322 2.87 4.37922 2.79 4.41122 2.726C4.44722 2.662 4.50322 2.602 4.57922 2.546L4.47122 2.492L4.35722 2.432C4.32122 2.416 4.28322 2.4 4.24322 2.384C4.20322 2.368 4.15922 2.35 4.11122 2.33C4.05122 2.298 4.00522 2.254 3.97322 2.198C3.94122 2.142 3.93122 2.09 3.94322 2.042C3.95522 1.986 3.98922 1.94 4.04522 1.904C4.10522 1.864 4.16922 1.844 4.23722 1.844C4.33722 1.844 4.43122 1.876 4.51922 1.94C4.60722 2.004 4.66322 2.084 4.68722 2.18C4.69522 2.22 4.70322 2.284 4.71122 2.372L4.72922 2.51L4.86122 2.582C4.97722 2.646 5.04522 2.684 5.06522 2.696ZM5.84522 2.234C5.85322 2.25 5.85722 2.272 5.85722 2.3C5.85722 2.352 5.83322 2.396 5.78522 2.432C5.71722 2.488 5.64522 2.516 5.56922 2.516C5.52522 2.516 5.48522 2.508 5.44922 2.492C5.35722 2.46 5.28122 2.42 5.22122 2.372C5.16522 2.32 5.12922 2.248 5.11322 2.156C5.18122 2 5.28122 1.922 5.41322 1.922C5.51722 1.922 5.60522 1.95 5.67722 2.006C5.74922 2.062 5.80522 2.138 5.84522 2.234ZM4.44122 4.466C4.61322 4.466 4.76122 4.37 4.88522 4.178C5.00922 3.982 5.07322 3.814 5.07722 3.674C5.07322 3.55 5.05522 3.444 5.02322 3.356C4.99522 3.268 4.92722 3.192 4.81922 3.128C4.75522 3.088 4.69722 3.062 4.64522 3.05C4.60522 3.05 4.56722 3.062 4.53122 3.086C4.49522 3.11 4.46722 3.144 4.44722 3.188C4.43522 3.22 4.39722 3.274 4.33322 3.35C4.27322 3.426 4.23522 3.496 4.21922 3.56C4.16322 3.78 4.12522 3.982 4.10522 4.166C4.09722 4.234 4.12322 4.304 4.18322 4.376C4.24322 4.448 4.30522 4.48 4.36922 4.472C4.40122 4.468 4.42522 4.466 4.44122 4.466ZM6.3502 6.692C6.3782 6.684 6.4142 6.672 6.4582 6.656C6.5022 6.644 6.5402 6.636 6.5722 6.632C6.8602 6.624 7.0702 6.564 7.2022 6.452C7.3382 6.34 7.4242 6.142 7.4602 5.858C7.4962 5.574 7.5322 5.148 7.5682 4.58L7.5922 4.196C7.5962 4.104 7.5782 4.034 7.5382 3.986C7.5022 3.934 7.4342 3.902 7.3342 3.89C7.1182 3.866 6.9302 3.782 6.7702 3.638C6.6142 3.494 6.5062 3.312 6.4462 3.092C6.4262 3.024 6.4042 2.944 6.3802 2.852C6.3322 2.676 6.2982 2.544 6.2782 2.456V2.444C6.2782 2.42 6.2862 2.394 6.3022 2.366C6.3182 2.334 6.3342 2.312 6.3502 2.3C6.4142 2.256 6.4882 2.234 6.5722 2.234C6.6842 2.234 6.7842 2.274 6.8722 2.354C6.9602 2.43 7.0102 2.526 7.0222 2.642C7.0422 2.822 7.0762 3.018 7.1242 3.23C7.1442 3.314 7.1822 3.356 7.2382 3.356C7.2822 3.356 7.3202 3.334 7.3522 3.29C7.4562 3.158 7.5362 3.03 7.5922 2.906C7.6602 2.754 7.7602 2.678 7.8922 2.678C7.9282 2.678 7.9542 2.68 7.9702 2.684C8.1782 2.724 8.2782 2.852 8.2702 3.068L8.2522 3.626C8.2362 4.122 8.2182 4.492 8.1982 4.736L8.1802 4.976C8.1562 5.304 8.1322 5.558 8.1082 5.738C8.0882 5.922 8.0542 6.106 8.0062 6.29C7.9462 6.522 7.8362 6.694 7.6762 6.806C7.5162 6.922 7.3282 6.98 7.1122 6.98C6.9402 6.98 6.7682 6.946 6.5962 6.878C6.5602 6.862 6.5182 6.84 6.4702 6.812C6.4222 6.788 6.3862 6.768 6.3622 6.752L6.3502 6.692Z" fill="#F472B6"/>
</svg>
