<svg width="9" height="7" viewBox="0 0 9 7" fill="none" xmlns="http://www.w3.org/2000/svg">
<g clip-path="url(#clip0_101_4)">
<path d="M2.73005 0.728072C2.83005 0.768072 2.88005 0.824072 2.88005 0.896072C2.88005 0.968072 2.83005 1.06007 2.73005 1.17207C2.68605 1.16807 2.62205 1.16607 2.53805 1.16607C2.35405 1.16607 2.17805 1.19207 2.01005 1.24407C1.84205 1.29207 1.66805 1.36807 1.48805 1.47207C1.40405 1.52407 1.33205 1.59007 1.27205 1.67007C1.22805 1.71807 1.20605 1.77407 1.20605 1.83807C1.20605 1.94607 1.26605 2.05007 1.38605 2.15007C1.50205 2.27007 1.69205 2.48807 1.95605 2.80407L2.09405 2.94807C2.29005 3.16007 2.44405 3.34007 2.55605 3.48807C2.67205 3.63607 2.77005 3.80607 2.85005 3.99807C2.88205 4.08207 2.89805 4.15807 2.89805 4.22607C2.89805 4.39807 2.83205 4.55607 2.70005 4.70007C2.54805 4.86807 2.37205 4.99007 2.17205 5.06607C1.97205 5.14607 1.74605 5.19607 1.49405 5.21607C1.46205 5.22007 1.42405 5.22407 1.38005 5.22807C1.33605 5.23207 1.28605 5.23407 1.23005 5.23407C1.19405 5.23407 1.14005 5.23007 1.06805 5.22207C0.980049 5.22607 0.888049 5.21007 0.792049 5.17407C0.696049 5.14207 0.608049 5.09407 0.528049 5.03007C0.376049 4.90207 0.300049 4.76007 0.300049 4.60407C0.300049 4.47207 0.356049 4.33807 0.468049 4.20207C0.524049 4.21007 0.556049 4.22807 0.564049 4.25607C0.576049 4.28007 0.578049 4.30807 0.570049 4.34007C0.566049 4.37207 0.564049 4.39807 0.564049 4.41807C0.564049 4.43007 0.568049 4.44807 0.576049 4.47207C0.732049 4.54407 0.918049 4.58007 1.13405 4.58007C1.37405 4.58007 1.60005 4.54007 1.81205 4.46007C2.02805 4.37607 2.16005 4.27407 2.20805 4.15407C2.23605 4.07407 2.16805 3.93407 2.00405 3.73407C1.84005 3.53007 1.65605 3.33207 1.45205 3.14007C1.26005 2.96807 1.08605 2.79807 0.930049 2.63007C0.842049 2.53407 0.772049 2.42407 0.720049 2.30007C0.672049 2.17207 0.648049 2.04007 0.648049 1.90407C0.648049 1.72007 0.694049 1.54607 0.786049 1.38207C0.882049 1.21807 1.02405 1.08407 1.21205 0.980072C1.57205 0.776072 1.94005 0.674072 2.31605 0.674072C2.36805 0.674072 2.44205 0.678072 2.53805 0.686072C2.62605 0.694072 2.69005 0.708072 2.73005 0.728072ZM5.06527 2.69607C5.24527 2.81607 5.38327 2.96607 5.47927 3.14607C5.57927 3.32207 5.62927 3.51007 5.62927 3.71007C5.62927 3.78607 5.61927 3.87407 5.59927 3.97407C5.53927 4.24207 5.42727 4.46207 5.26327 4.63407C5.10327 4.80607 4.89127 4.91807 4.62727 4.97007C4.53127 4.98607 4.45927 4.99407 4.41127 4.99407C4.23527 4.99407 4.07727 4.95407 3.93727 4.87407C3.80127 4.79007 3.69327 4.67807 3.61327 4.53807C3.53727 4.39807 3.49927 4.24807 3.49927 4.08807C3.49927 4.05607 3.50327 4.00807 3.51127 3.94407C3.52327 3.86407 3.55327 3.73407 3.60127 3.55407C3.65727 3.35407 3.74327 3.20207 3.85927 3.09807C3.97527 2.99407 4.14327 2.95007 4.36327 2.96607C4.36327 2.87007 4.37927 2.79007 4.41127 2.72607C4.44727 2.66207 4.50327 2.60207 4.57927 2.54607L4.47127 2.49207L4.35727 2.43207C4.32127 2.41607 4.28327 2.40007 4.24327 2.38407C4.20327 2.36807 4.15927 2.35007 4.11127 2.33007C4.05127 2.29807 4.00527 2.25407 3.97327 2.19807C3.94127 2.14207 3.93127 2.09007 3.94327 2.04207C3.95527 1.98607 3.98927 1.94007 4.04527 1.90407C4.10527 1.86407 4.16927 1.84407 4.23727 1.84407C4.33727 1.84407 4.43127 1.87607 4.51927 1.94007C4.60727 2.00407 4.66327 2.08407 4.68727 2.18007C4.69527 2.22007 4.70327 2.28407 4.71127 2.37207L4.72927 2.51007L4.86127 2.58207C4.97727 2.64607 5.04527 2.68407 5.06527 2.69607ZM5.84527 2.23407C5.85327 2.25007 5.85727 2.27207 5.85727 2.30007C5.85727 2.35207 5.83327 2.39607 5.78527 2.43207C5.71727 2.48807 5.64527 2.51607 5.56927 2.51607C5.52527 2.51607 5.48527 2.50807 5.44927 2.49207C5.35727 2.46007 5.28127 2.42007 5.22127 2.37207C5.16527 2.32007 5.12927 2.24807 5.11327 2.15607C5.18127 2.00007 5.28127 1.92207 5.41327 1.92207C5.51727 1.92207 5.60527 1.95007 5.67727 2.00607C5.74927 2.06207 5.80527 2.13807 5.84527 2.23407ZM4.44127 4.46607C4.61327 4.46607 4.76127 4.37007 4.88527 4.17807C5.00927 3.98207 5.07327 3.81407 5.07727 3.67407C5.07327 3.55007 5.05527 3.44407 5.02327 3.35607C4.99527 3.26807 4.92727 3.19207 4.81927 3.12807C4.75527 3.08807 4.69727 3.06207 4.64527 3.05007C4.60527 3.05007 4.56727 3.06207 4.53127 3.08607C4.49527 3.11007 4.46727 3.14407 4.44727 3.18807C4.43527 3.22007 4.39727 3.27407 4.33327 3.35007C4.27327 3.42607 4.23527 3.49607 4.21927 3.56007C4.16327 3.78007 4.12527 3.98207 4.10527 4.16607C4.09727 4.23407 4.12327 4.30407 4.18327 4.37607C4.24327 4.44807 4.30527 4.48007 4.36927 4.47207C4.40127 4.46807 4.42527 4.46607 4.44127 4.46607ZM6.35025 6.69207C6.37825 6.68407 6.41425 6.67207 6.45825 6.65607C6.50225 6.64407 6.54025 6.63607 6.57225 6.63207C6.86025 6.62407 7.07025 6.56407 7.20225 6.45207C7.33825 6.34007 7.42425 6.14207 7.46025 5.85807C7.49625 5.57407 7.53225 5.14807 7.56825 4.58007L7.59225 4.19607C7.59625 4.10407 7.57825 4.03407 7.53825 3.98607C7.50225 3.93407 7.43425 3.90207 7.33425 3.89007C7.11825 3.86607 6.93025 3.78207 6.77025 3.63807C6.61425 3.49407 6.50625 3.31207 6.44625 3.09207C6.42625 3.02407 6.40425 2.94407 6.38025 2.85207C6.33225 2.67607 6.29825 2.54407 6.27825 2.45607V2.44407C6.27825 2.42007 6.28625 2.39407 6.30225 2.36607C6.31825 2.33407 6.33425 2.31207 6.35025 2.30007C6.41425 2.25607 6.48825 2.23407 6.57225 2.23407C6.68425 2.23407 6.78425 2.27407 6.87225 2.35407C6.96025 2.43007 7.01025 2.52607 7.02225 2.64207C7.04225 2.82207 7.07625 3.01807 7.12425 3.23007C7.14425 3.31407 7.18225 3.35607 7.23825 3.35607C7.28225 3.35607 7.32025 3.33407 7.35225 3.29007C7.45625 3.15807 7.53625 3.03007 7.59225 2.90607C7.66025 2.75407 7.76025 2.67807 7.89225 2.67807C7.92825 2.67807 7.95425 2.68007 7.97025 2.68407C8.17825 2.72407 8.27825 2.85207 8.27025 3.06807L8.25225 3.62607C8.23625 4.12207 8.21825 4.49207 8.19825 4.73607L8.18025 4.97607C8.15625 5.30407 8.13225 5.55807 8.10825 5.73807C8.08825 5.92207 8.05425 6.10607 8.00625 6.29007C7.94625 6.52207 7.83625 6.69407 7.67625 6.80607C7.51625 6.92207 7.32825 6.98007 7.11225 6.98007C6.94025 6.98007 6.76825 6.94607 6.59625 6.87807C6.56025 6.86207 6.51825 6.84007 6.47025 6.81207C6.42225 6.78807 6.38625 6.76807 6.36225 6.75207L6.35025 6.69207Z" fill="#DB2777"/>
</g>
<defs>
<clipPath id="clip0_101_4">
<rect width="9" height="7" fill="white"/>
</clipPath>
</defs>
</svg>
